<svg width="272" height="33" viewBox="0 0 272 33" fill="none" xmlns="http://www.w3.org/2000/svg">
<path d="M18.6436 26H17.5479L15.7881 23.5596C15.3564 23.9469 14.8971 24.3122 14.4102 24.6553C13.9342 24.9873 13.4307 25.2806 12.8994 25.5352C12.3682 25.7786 11.8203 25.9723 11.2559 26.1162C10.7025 26.2601 10.138 26.332 9.5625 26.332C8.31185 26.332 7.13314 26.0996 6.02637 25.6348C4.93066 25.1589 3.96777 24.5059 3.1377 23.6758C2.31868 22.8346 1.67122 21.8441 1.19531 20.7041C0.719401 19.5531 0.481445 18.3024 0.481445 16.9521C0.481445 15.613 0.719401 14.3678 1.19531 13.2168C1.67122 12.0658 2.31868 11.0697 3.1377 10.2285C3.96777 9.38737 4.93066 8.72884 6.02637 8.25293C7.13314 7.77702 8.31185 7.53906 9.5625 7.53906C9.96094 7.53906 10.3704 7.57227 10.791 7.63867C11.2227 7.70508 11.6377 7.81576 12.0361 7.9707C12.4456 8.11458 12.8275 8.30827 13.1816 8.55176C13.5358 8.79525 13.8346 9.09408 14.0781 9.44824V1.14746H18.6436V26ZM14.0781 16.9521C14.0781 16.3324 13.9564 15.7347 13.7129 15.1592C13.4805 14.5726 13.1595 14.0579 12.75 13.6152C12.3405 13.1615 11.859 12.8018 11.3057 12.5361C10.7633 12.2594 10.1823 12.1211 9.5625 12.1211C8.94271 12.1211 8.35612 12.2318 7.80273 12.4531C7.26042 12.6745 6.78451 12.9954 6.375 13.416C5.97656 13.8255 5.66113 14.3291 5.42871 14.9268C5.19629 15.5244 5.08008 16.1995 5.08008 16.9521C5.08008 17.6051 5.19629 18.2249 5.42871 18.8115C5.66113 19.3981 5.97656 19.9128 6.375 20.3555C6.78451 20.7982 7.26042 21.1468 7.80273 21.4014C8.35612 21.6559 8.94271 21.7832 9.5625 21.7832C10.1823 21.7832 10.7633 21.6504 11.3057 21.3848C11.859 21.1081 12.3405 20.7484 12.75 20.3057C13.1595 19.8519 13.4805 19.3372 13.7129 18.7617C13.9564 18.1751 14.0781 17.5719 14.0781 16.9521ZM27.459 3.38867C27.459 3.80924 27.376 4.20215 27.21 4.56738C27.055 4.93262 26.8392 5.25358 26.5625 5.53027C26.2858 5.7959 25.9593 6.01172 25.583 6.17773C25.2178 6.33268 24.8249 6.41016 24.4043 6.41016C23.9837 6.41016 23.5853 6.33268 23.209 6.17773C22.8438 6.01172 22.5228 5.7959 22.2461 5.53027C21.9805 5.25358 21.7646 4.93262 21.5986 4.56738C21.4437 4.20215 21.3662 3.80924 21.3662 3.38867C21.3662 2.97917 21.4437 2.5918 21.5986 2.22656C21.7646 1.85026 21.9805 1.5293 22.2461 1.26367C22.5228 0.986979 22.8438 0.771159 23.209 0.616211C23.5853 0.450195 23.9837 0.367188 24.4043 0.367188C24.8249 0.367188 25.2178 0.450195 25.583 0.616211C25.9593 0.771159 26.2858 0.986979 26.5625 1.26367C26.8392 1.5293 27.055 1.85026 27.21 2.22656C27.376 2.5918 27.459 2.97917 27.459 3.38867ZM26.6787 26H22.1133V8.21973H26.6787V26ZM39.9102 26H29.5508V21.4844H39.9102C40.2201 21.4844 40.4857 21.3737 40.707 21.1523C40.9284 20.931 41.0391 20.6654 41.0391 20.3555C41.0391 20.0345 40.9284 19.8242 40.707 19.7246C40.4857 19.625 40.2201 19.5752 39.9102 19.5752H35.1953C34.4095 19.5752 33.6735 19.4258 32.9873 19.127C32.3011 18.8281 31.7035 18.4242 31.1943 17.915C30.6852 17.3949 30.2812 16.7917 29.9824 16.1055C29.6947 15.4193 29.5508 14.6833 29.5508 13.8975C29.5508 13.1117 29.6947 12.3757 29.9824 11.6895C30.2812 11.0033 30.6852 10.4056 31.1943 9.89648C31.7035 9.38737 32.3011 8.98893 32.9873 8.70117C33.6735 8.40234 34.4095 8.25293 35.1953 8.25293H44.376V12.7686H35.1953C34.8854 12.7686 34.6198 12.8792 34.3984 13.1006C34.1771 13.3219 34.0664 13.5876 34.0664 13.8975C34.0664 14.2184 34.1771 14.4951 34.3984 14.7275C34.6198 14.9489 34.8854 15.0596 35.1953 15.0596H39.9102C40.6849 15.0596 41.4154 15.1924 42.1016 15.458C42.7878 15.7126 43.3854 16.0723 43.8945 16.5371C44.4036 17.002 44.8076 17.5609 45.1064 18.2139C45.4053 18.8669 45.5547 19.5807 45.5547 20.3555C45.5547 21.1413 45.4053 21.8773 45.1064 22.5635C44.8076 23.2386 44.4036 23.8363 43.8945 24.3564C43.3854 24.8656 42.7878 25.2695 42.1016 25.5684C41.4154 25.8561 40.6849 26 39.9102 26ZM52.5107 26H47.9785V8.21973H49.0742L50.5684 10.3281C51.2988 9.66406 52.1289 9.15495 53.0586 8.80078C53.9883 8.43555 54.9512 8.25293 55.9473 8.25293H59.9482V12.7686H55.9473C55.4714 12.7686 55.0231 12.8571 54.6025 13.0342C54.182 13.2113 53.8167 13.4548 53.5068 13.7646C53.1969 14.0745 52.9535 14.4398 52.7764 14.8604C52.5993 15.2809 52.5107 15.7292 52.5107 16.2051V26ZM74.9893 23.9248C74.624 24.2568 74.2311 24.5723 73.8105 24.8711C73.401 25.1589 72.9694 25.4134 72.5156 25.6348C72.0618 25.8451 71.5915 26.0111 71.1045 26.1328C70.6286 26.2656 70.1416 26.332 69.6436 26.332C68.5479 26.332 67.5186 26.1383 66.5557 25.751C65.5928 25.3636 64.7461 24.8158 64.0156 24.1074C63.2962 23.388 62.7262 22.5192 62.3057 21.501C61.8962 20.4717 61.6914 19.3206 61.6914 18.0479V8.21973H66.207V18.0479C66.207 18.6455 66.2956 19.1823 66.4727 19.6582C66.6608 20.123 66.9098 20.516 67.2197 20.8369C67.5296 21.1579 67.8893 21.4014 68.2988 21.5674C68.7194 21.7334 69.1676 21.8164 69.6436 21.8164C70.1084 21.8164 70.5456 21.7113 70.9551 21.501C71.3757 21.2796 71.7409 20.9919 72.0508 20.6377C72.3607 20.2835 72.6042 19.8851 72.7812 19.4424C72.9583 18.9886 73.0469 18.5238 73.0469 18.0479V8.21973H77.5791V26H76.4834L74.9893 23.9248ZM85.6143 32.7734H81.0488V8.21973H82.1445L83.9541 10.3613C84.3636 9.97396 84.8118 9.60872 85.2988 9.26562C85.7858 8.92253 86.2894 8.62923 86.8096 8.38574C87.3408 8.13118 87.8887 7.93197 88.4531 7.78809C89.0176 7.64421 89.5876 7.57227 90.1631 7.57227C91.4137 7.57227 92.5869 7.79915 93.6826 8.25293C94.7894 8.69564 95.7523 9.3265 96.5713 10.1455C97.4014 10.9645 98.0544 11.9551 98.5303 13.1172C99.0062 14.2682 99.2441 15.5465 99.2441 16.9521C99.2441 18.4131 99.0062 19.7301 98.5303 20.9033C98.0544 22.0654 97.4014 23.056 96.5713 23.875C95.7523 24.6829 94.7894 25.3027 93.6826 25.7344C92.5869 26.166 91.4137 26.3818 90.1631 26.3818C89.7646 26.3818 89.3662 26.3376 88.9678 26.249C88.5804 26.1605 88.193 26.0443 87.8057 25.9004C87.4294 25.7454 87.0531 25.5739 86.6768 25.3857C86.3115 25.1976 85.9574 25.0039 85.6143 24.8047V32.7734ZM94.6953 16.9521C94.6953 16.1995 94.5736 15.5244 94.3301 14.9268C94.0977 14.3291 93.7767 13.8255 93.3672 13.416C92.9577 12.9954 92.4762 12.6745 91.9229 12.4531C91.3695 12.2318 90.7829 12.1211 90.1631 12.1211C89.5433 12.1211 88.9567 12.2318 88.4033 12.4531C87.861 12.6745 87.3851 12.9954 86.9756 13.416C86.5661 13.8255 86.2396 14.3291 85.9961 14.9268C85.7637 15.5244 85.6475 16.1995 85.6475 16.9521C85.6475 17.6715 85.7637 18.3301 85.9961 18.9277C86.2396 19.5254 86.5661 20.0345 86.9756 20.4551C87.3851 20.8757 87.861 21.2021 88.4033 21.4346C88.9567 21.667 89.5433 21.7832 90.1631 21.7832C90.7829 21.7832 91.3695 21.667 91.9229 21.4346C92.4762 21.2021 92.9577 20.8757 93.3672 20.4551C93.7767 20.0345 94.0977 19.5254 94.3301 18.9277C94.5736 18.3301 94.6953 17.6715 94.6953 16.9521ZM111.529 26H101.17V21.4844H111.529C111.839 21.4844 112.105 21.3737 112.326 21.1523C112.548 20.931 112.658 20.6654 112.658 20.3555C112.658 20.0345 112.548 19.8242 112.326 19.7246C112.105 19.625 111.839 19.5752 111.529 19.5752H106.814C106.029 19.5752 105.293 19.4258 104.606 19.127C103.92 18.8281 103.323 18.4242 102.813 17.915C102.304 17.3949 101.9 16.7917 101.602 16.1055C101.314 15.4193 101.17 14.6833 101.17 13.8975C101.17 13.1117 101.314 12.3757 101.602 11.6895C101.9 11.0033 102.304 10.4056 102.813 9.89648C103.323 9.38737 103.92 8.98893 104.606 8.70117C105.293 8.40234 106.029 8.25293 106.814 8.25293H115.995V12.7686H106.814C106.505 12.7686 106.239 12.8792 106.018 13.1006C105.796 13.3219 105.686 13.5876 105.686 13.8975C105.686 14.2184 105.796 14.4951 106.018 14.7275C106.239 14.9489 106.505 15.0596 106.814 15.0596H111.529C112.304 15.0596 113.035 15.1924 113.721 15.458C114.407 15.7126 115.005 16.0723 115.514 16.5371C116.023 17.002 116.427 17.5609 116.726 18.2139C117.024 18.8669 117.174 19.5807 117.174 20.3555C117.174 21.1413 117.024 21.8773 116.726 22.5635C116.427 23.2386 116.023 23.8363 115.514 24.3564C115.005 24.8656 114.407 25.2695 113.721 25.5684C113.035 25.8561 112.304 26 111.529 26ZM124.943 3.38867C124.943 3.80924 124.86 4.20215 124.694 4.56738C124.539 4.93262 124.324 5.25358 124.047 5.53027C123.77 5.7959 123.444 6.01172 123.067 6.17773C122.702 6.33268 122.309 6.41016 121.889 6.41016C121.468 6.41016 121.07 6.33268 120.693 6.17773C120.328 6.01172 120.007 5.7959 119.73 5.53027C119.465 5.25358 119.249 4.93262 119.083 4.56738C118.928 4.20215 118.851 3.80924 118.851 3.38867C118.851 2.97917 118.928 2.5918 119.083 2.22656C119.249 1.85026 119.465 1.5293 119.73 1.26367C120.007 0.986979 120.328 0.771159 120.693 0.616211C121.07 0.450195 121.468 0.367188 121.889 0.367188C122.309 0.367188 122.702 0.450195 123.067 0.616211C123.444 0.771159 123.77 0.986979 124.047 1.26367C124.324 1.5293 124.539 1.85026 124.694 2.22656C124.86 2.5918 124.943 2.97917 124.943 3.38867ZM124.163 26H119.598V8.21973H124.163V26Z" fill="#999999"/>
<path d="M136.548 26C135.452 26 134.423 25.7952 133.46 25.3857C132.497 24.9652 131.65 24.3952 130.92 23.6758C130.201 22.9453 129.631 22.0986 129.21 21.1357C128.8 20.1729 128.596 19.1436 128.596 18.0479V12.7686H126.388V8.25293H128.596V1.14746H133.111V8.25293H139.984V12.7686H133.111V18.0479C133.111 18.5238 133.2 18.972 133.377 19.3926C133.554 19.8021 133.798 20.1618 134.107 20.4717C134.417 20.7816 134.783 21.0306 135.203 21.2188C135.624 21.3958 136.072 21.4844 136.548 21.4844H139.984V26H136.548ZM149.613 21.6504C149.79 21.7057 149.967 21.7445 150.145 21.7666C150.322 21.7777 150.499 21.7832 150.676 21.7832C151.118 21.7832 151.545 21.7223 151.954 21.6006C152.364 21.4788 152.745 21.3073 153.1 21.0859C153.465 20.8535 153.786 20.5768 154.062 20.2559C154.35 19.9238 154.583 19.5586 154.76 19.1602L158.08 22.4971C157.66 23.0947 157.173 23.6315 156.619 24.1074C156.077 24.5833 155.485 24.9873 154.843 25.3193C154.212 25.6514 153.542 25.9004 152.834 26.0664C152.137 26.2435 151.417 26.332 150.676 26.332C149.425 26.332 148.246 26.0996 147.14 25.6348C146.044 25.1699 145.081 24.5225 144.251 23.6924C143.432 22.8623 142.785 21.8773 142.309 20.7373C141.833 19.5863 141.595 18.3245 141.595 16.9521C141.595 15.5465 141.833 14.2627 142.309 13.1006C142.785 11.9385 143.432 10.9479 144.251 10.1289C145.081 9.3099 146.044 8.6735 147.14 8.21973C148.246 7.76595 149.425 7.53906 150.676 7.53906C151.417 7.53906 152.142 7.6276 152.851 7.80469C153.559 7.98177 154.229 8.23633 154.859 8.56836C155.501 8.90039 156.099 9.3099 156.652 9.79688C157.206 10.2728 157.693 10.8096 158.113 11.4072L149.613 21.6504ZM151.938 12.3037C151.727 12.2262 151.517 12.1764 151.307 12.1543C151.107 12.1322 150.897 12.1211 150.676 12.1211C150.056 12.1211 149.469 12.2373 148.916 12.4697C148.374 12.6911 147.898 13.012 147.488 13.4326C147.09 13.8532 146.774 14.3623 146.542 14.96C146.31 15.5465 146.193 16.2106 146.193 16.9521C146.193 17.1182 146.199 17.3063 146.21 17.5166C146.232 17.7269 146.26 17.9427 146.293 18.1641C146.337 18.3743 146.387 18.5791 146.442 18.7783C146.498 18.9775 146.57 19.1546 146.658 19.3096L151.938 12.3037ZM164.97 26H160.404V1.14746H164.97V16.8193L171.727 8.25293H176.939L171.046 15.6572L176.939 26H171.727L168.124 19.542L164.97 23.7256V26ZM183.265 26H178.732V8.21973H179.828L181.322 9.94629C182.053 9.28223 182.877 8.77311 183.796 8.41895C184.726 8.05371 185.694 7.87109 186.701 7.87109C187.786 7.87109 188.81 8.08138 189.772 8.50195C190.735 8.91146 191.576 9.48145 192.296 10.2119C193.015 10.9313 193.58 11.778 193.989 12.752C194.41 13.7148 194.62 14.7441 194.62 15.8398V26H190.088V15.8398C190.088 15.375 189.999 14.9378 189.822 14.5283C189.645 14.1077 189.402 13.7425 189.092 13.4326C188.782 13.1227 188.422 12.8792 188.013 12.7021C187.603 12.5251 187.166 12.4365 186.701 12.4365C186.225 12.4365 185.777 12.5251 185.356 12.7021C184.936 12.8792 184.571 13.1227 184.261 13.4326C183.951 13.7425 183.707 14.1077 183.53 14.5283C183.353 14.9378 183.265 15.375 183.265 15.8398V26ZM215.04 16.9521C215.04 18.2803 214.802 19.5199 214.326 20.6709C213.85 21.8109 213.203 22.8014 212.384 23.6426C211.565 24.4727 210.602 25.1312 209.495 25.6182C208.399 26.0941 207.221 26.332 205.959 26.332C204.708 26.332 203.53 26.0941 202.423 25.6182C201.327 25.1312 200.364 24.4727 199.534 23.6426C198.715 22.8014 198.068 21.8109 197.592 20.6709C197.116 19.5199 196.878 18.2803 196.878 16.9521C196.878 15.6019 197.116 14.3512 197.592 13.2002C198.068 12.0492 198.715 11.0586 199.534 10.2285C200.364 9.38737 201.327 8.72884 202.423 8.25293C203.53 7.77702 204.708 7.53906 205.959 7.53906C207.221 7.53906 208.399 7.76595 209.495 8.21973C210.602 8.66243 211.565 9.29883 212.384 10.1289C213.203 10.9479 213.85 11.9385 214.326 13.1006C214.802 14.2516 215.04 15.5355 215.04 16.9521ZM210.475 16.9521C210.475 16.2217 210.353 15.5632 210.109 14.9766C209.877 14.3789 209.556 13.8698 209.146 13.4492C208.737 13.0176 208.256 12.6911 207.702 12.4697C207.16 12.2373 206.579 12.1211 205.959 12.1211C205.339 12.1211 204.753 12.2373 204.199 12.4697C203.657 12.6911 203.181 13.0176 202.771 13.4492C202.373 13.8698 202.058 14.3789 201.825 14.9766C201.593 15.5632 201.477 16.2217 201.477 16.9521C201.477 17.6383 201.593 18.2747 201.825 18.8613C202.058 19.4479 202.373 19.957 202.771 20.3887C203.181 20.8203 203.657 21.1634 204.199 21.418C204.753 21.6615 205.339 21.7832 205.959 21.7832C206.579 21.7832 207.16 21.667 207.702 21.4346C208.256 21.2021 208.737 20.8757 209.146 20.4551C209.556 20.0345 209.877 19.5254 210.109 18.9277C210.353 18.3301 210.475 17.6715 210.475 16.9521ZM222.112 26H217.547V1.14746H222.112V26ZM242.765 16.9521C242.765 18.2803 242.527 19.5199 242.051 20.6709C241.575 21.8109 240.927 22.8014 240.108 23.6426C239.289 24.4727 238.326 25.1312 237.22 25.6182C236.124 26.0941 234.945 26.332 233.684 26.332C232.433 26.332 231.254 26.0941 230.147 25.6182C229.052 25.1312 228.089 24.4727 227.259 23.6426C226.44 22.8014 225.792 21.8109 225.316 20.6709C224.84 19.5199 224.603 18.2803 224.603 16.9521C224.603 15.6019 224.84 14.3512 225.316 13.2002C225.792 12.0492 226.44 11.0586 227.259 10.2285C228.089 9.38737 229.052 8.72884 230.147 8.25293C231.254 7.77702 232.433 7.53906 233.684 7.53906C234.945 7.53906 236.124 7.76595 237.22 8.21973C238.326 8.66243 239.289 9.29883 240.108 10.1289C240.927 10.9479 241.575 11.9385 242.051 13.1006C242.527 14.2516 242.765 15.5355 242.765 16.9521ZM238.199 16.9521C238.199 16.2217 238.077 15.5632 237.834 14.9766C237.602 14.3789 237.281 13.8698 236.871 13.4492C236.462 13.0176 235.98 12.6911 235.427 12.4697C234.884 12.2373 234.303 12.1211 233.684 12.1211C233.064 12.1211 232.477 12.2373 231.924 12.4697C231.382 12.6911 230.906 13.0176 230.496 13.4492C230.098 13.8698 229.782 14.3789 229.55 14.9766C229.317 15.5632 229.201 16.2217 229.201 16.9521C229.201 17.6383 229.317 18.2747 229.55 18.8613C229.782 19.4479 230.098 19.957 230.496 20.3887C230.906 20.8203 231.382 21.1634 231.924 21.418C232.477 21.6615 233.064 21.7832 233.684 21.7832C234.303 21.7832 234.884 21.667 235.427 21.4346C235.98 21.2021 236.462 20.8757 236.871 20.4551C237.281 20.0345 237.602 19.5254 237.834 18.9277C238.077 18.3301 238.199 17.6715 238.199 16.9521ZM257.922 16.9521C257.922 16.3324 257.8 15.7347 257.557 15.1592C257.324 14.5726 257.003 14.0579 256.594 13.6152C256.184 13.1615 255.703 12.8018 255.149 12.5361C254.607 12.2594 254.026 12.1211 253.406 12.1211C252.786 12.1211 252.2 12.2262 251.646 12.4365C251.104 12.6468 250.628 12.9567 250.219 13.3662C249.82 13.7757 249.505 14.2848 249.272 14.8936C249.04 15.4912 248.924 16.1774 248.924 16.9521C248.924 17.6937 249.04 18.3633 249.272 18.9609C249.505 19.5475 249.82 20.0511 250.219 20.4717C250.628 20.8923 251.104 21.2188 251.646 21.4512C252.2 21.6725 252.786 21.7832 253.406 21.7832C254.026 21.7832 254.607 21.6504 255.149 21.3848C255.703 21.1081 256.184 20.7484 256.594 20.3057C257.003 19.8519 257.324 19.3372 257.557 18.7617C257.8 18.1751 257.922 17.5719 257.922 16.9521ZM262.487 23.7588C262.487 25.0094 262.249 26.1826 261.773 27.2783C261.298 28.374 260.645 29.3314 259.814 30.1504C258.995 30.9694 258.033 31.6169 256.926 32.0928C255.83 32.5687 254.657 32.8066 253.406 32.8066L251.132 32.7734V28.2412L253.373 28.2744C254.081 28.2744 254.685 28.1803 255.183 27.9922C255.681 27.8151 256.101 27.5661 256.444 27.2451C256.787 26.9352 257.059 26.5755 257.258 26.166C257.468 25.7565 257.634 25.3249 257.756 24.8711C257.579 25.1589 257.324 25.3968 256.992 25.585C256.66 25.762 256.289 25.9059 255.88 26.0166C255.481 26.1383 255.061 26.2214 254.618 26.2656C254.187 26.3099 253.783 26.332 253.406 26.332C252.156 26.332 250.977 26.1162 249.87 25.6846C248.774 25.2529 247.812 24.6387 246.981 23.8418C246.162 23.0339 245.515 22.0488 245.039 20.8867C244.563 19.7246 244.325 18.4131 244.325 16.9521C244.325 15.613 244.563 14.3678 245.039 13.2168C245.515 12.0658 246.162 11.0697 246.981 10.2285C247.812 9.38737 248.774 8.72884 249.87 8.25293C250.977 7.77702 252.156 7.53906 253.406 7.53906C253.982 7.53906 254.552 7.611 255.116 7.75488C255.681 7.89876 256.229 8.09798 256.76 8.35254C257.291 8.6071 257.795 8.90592 258.271 9.24902C258.757 9.59212 259.211 9.96289 259.632 10.3613L261.392 8.25293H262.487V23.7588ZM271.303 3.38867C271.303 3.80924 271.22 4.20215 271.054 4.56738C270.899 4.93262 270.683 5.25358 270.406 5.53027C270.13 5.7959 269.803 6.01172 269.427 6.17773C269.062 6.33268 268.669 6.41016 268.248 6.41016C267.827 6.41016 267.429 6.33268 267.053 6.17773C266.688 6.01172 266.367 5.7959 266.09 5.53027C265.824 5.25358 265.608 4.93262 265.442 4.56738C265.287 4.20215 265.21 3.80924 265.21 3.38867C265.21 2.97917 265.287 2.5918 265.442 2.22656C265.608 1.85026 265.824 1.5293 266.09 1.26367C266.367 0.986979 266.688 0.771159 267.053 0.616211C267.429 0.450195 267.827 0.367188 268.248 0.367188C268.669 0.367188 269.062 0.450195 269.427 0.616211C269.803 0.771159 270.13 0.986979 270.406 1.26367C270.683 1.5293 270.899 1.85026 271.054 2.22656C271.22 2.5918 271.303 2.97917 271.303 3.38867ZM270.522 26H265.957V8.21973H270.522V26Z" fill="#6494B3"/>
</svg>
