<?xml version="1.0" encoding="UTF-8" standalone="no"?>
<svg
   xmlns:dc="http://purl.org/dc/elements/1.1/"
   xmlns:cc="http://creativecommons.org/ns#"
   xmlns:rdf="http://www.w3.org/1999/02/22-rdf-syntax-ns#"
   xmlns:svg="http://www.w3.org/2000/svg"
   xmlns="http://www.w3.org/2000/svg"
   xmlns:sodipodi="http://sodipodi.sourceforge.net/DTD/sodipodi-0.dtd"
   xmlns:inkscape="http://www.inkscape.org/namespaces/inkscape"
   width="320"
   height="320"
   viewBox="0 0 320 320"
   version="1.1"
   id="svg6"
   sodipodi:docname="logo.svg"
   style="fill:none"
   inkscape:export-filename="/home/pondokit/Downloads/disrupsiteknologi.png"
   inkscape:export-xdpi="96"
   inkscape:export-ydpi="96"
   inkscape:version="0.92.3 (2405546, 2018-03-11)">
  <metadata
     id="metadata12">
    <rdf:RDF>
      <cc:Work
         rdf:about="">
        <dc:format>image/svg+xml</dc:format>
        <dc:type
           rdf:resource="http://purl.org/dc/dcmitype/StillImage" />
        <dc:title></dc:title>
      </cc:Work>
    </rdf:RDF>
  </metadata>
  <defs
     id="defs10" />
  <sodipodi:namedview
     pagecolor="#ffffff"
     bordercolor="#666666"
     borderopacity="1"
     objecttolerance="10"
     gridtolerance="10"
     guidetolerance="10"
     inkscape:pageopacity="0"
     inkscape:pageshadow="2"
     inkscape:window-width="1366"
     inkscape:window-height="703"
     id="namedview8"
     showgrid="false"
     inkscape:zoom="1.0919118"
     inkscape:cx="-24.316425"
     inkscape:cy="126.01219"
     inkscape:window-x="0"
     inkscape:window-y="0"
     inkscape:window-maximized="1"
     inkscape:current-layer="svg6" />
  <path
     d="m 93.897068,140.93849 h -1.643551 l -2.6397,-3.6606 c -0.64755,0.58095 -1.3365,1.1289 -2.06685,1.64355 -0.714,0.498 -1.46925,0.93795 -2.2662,1.31985 -0.7968,0.3651 -1.61865,0.65565 -2.46525,0.8715 -0.8301,0.21585 -1.67685,0.3237 -2.5401,0.3237 -1.875974,0 -3.64404,-0.3486 -5.304194,-1.0458 -1.643565,-0.71385 -3.0879,-1.69335 -4.333005,-2.9385 -1.228534,-1.2618 -2.199724,-2.74755 -2.913589,-4.45755 -0.713864,-1.7265 -1.070798,-3.60255 -1.070798,-5.628 0,-2.00865 0.356934,-3.87645 1.070798,-5.60295 0.713865,-1.7265 1.685055,-3.22065 2.913589,-4.48245 1.245105,-1.2617 2.68944,-2.24949 4.333005,-2.96336 1.660155,-0.71386 3.42822,-1.0708 5.304194,-1.0708 0.597661,0 1.21185,0.0498 1.84275,0.1494 0.64755,0.0996 1.27005,0.26563 1.86765,0.49804 0.61425,0.21582 1.1871,0.50636 1.71825,0.87159 0.5313,0.36524 0.9795,0.81348 1.34475,1.34472 v -12.45117 h 6.84825 z m -6.84825,-13.57185 c 0,-0.92955 -0.18255,-1.8261 -0.5478,-2.68935 -0.3486,-0.8799 -0.8301,-1.65195 -1.44435,-2.316 -0.61425,-0.68055 -1.3365,-1.2201 -2.16645,-1.61865 -0.8136,-0.41505 -1.6851,-0.6225 -2.6148,-0.6225 -0.929685,0 -1.80957,0.16605 -2.639655,0.498 -0.813465,0.3321 -1.52733,0.81345 -2.141595,1.44435 -0.59766,0.61425 -1.070805,1.36965 -1.419435,2.2662 -0.34863,0.8964 -0.522945,1.90905 -0.522945,3.03795 0,0.9795 0.174315,1.9092 0.522945,2.7891 0.34863,0.8799 0.821775,1.65195 1.419434,2.316 0.614266,0.66405 1.328131,1.18695 2.141595,1.56885 0.830085,0.38175 1.70997,0.5727 2.639655,0.5727 0.9297,0 1.8012,-0.1992 2.614801,-0.5976 0.829949,-0.41505 1.5522,-0.9546 2.166449,-1.61865 0.61425,-0.6807 1.09575,-1.45275 1.44435,-2.316 0.365251,-0.8799 0.5478,-1.7847 0.547801,-2.7144 z M 107.12017,107.0215 c 0,0.63085 -0.1245,1.22022 -0.3735,1.76806 -0.2325,0.54786 -0.5562,1.0293 -0.97125,1.44434 -0.41505,0.39844 -0.9048,0.72217 -1.46925,0.97119 -0.5478,0.23242 -1.13715,0.34864 -1.76805,0.34864 -0.6309,0 -1.2285,-0.11625 -1.79295,-0.34864 -0.5478,-0.24902 -1.029303,-0.57275 -1.444353,-0.97119 -0.3984,-0.41504 -0.72225,-0.89648 -0.97125,-1.44434 -0.23235,-0.54784 -0.3486,-1.13721 -0.3486,-1.76806 0,-0.61425 0.11625,-1.19531 0.3486,-1.74317 0.249,-0.56445 0.57285,-1.04589 0.97125,-1.44433 0.41505,-0.41504 0.896553,-0.73877 1.444353,-0.97119 0.56445,-0.24902 1.16205,-0.37353 1.79295,-0.37353 0.6309,0 1.22025,0.1245 1.76805,0.37353 0.56445,0.23242 1.0542,0.55615 1.46925,0.97119 0.41505,0.39844 0.73875,0.87988 0.97125,1.44433 0.249,0.54786 0.3735,1.12892 0.3735,1.74317 z m -1.17045,33.91699 h -6.848103 v -26.6704 h 6.848103 z m 19.84725,0 h -15.5391 v -6.7734 h 15.5391 c 0.46485,0 0.86325,-0.16605 1.1952,-0.49815 0.3321,-0.33195 0.49815,-0.73035 0.49815,-1.1952 0,-0.4815 -0.16605,-0.79695 -0.49815,-0.94635 -0.33195,-0.1494 -0.73035,-0.2241 -1.1952,-0.2241 h -7.07235 c -1.1787,0 -2.2827,-0.2241 -3.312,-0.6723 -1.0293,-0.44835 -1.9257,-1.0542 -2.6895,-1.818 -0.76365,-0.78015 -1.36965,-1.68495 -1.81785,-2.71425 -0.43155,-1.0293 -0.6474,-2.1333 -0.6474,-3.312 0,-1.1787 0.21585,-2.2827 0.6474,-3.312 0.4482,-1.0293 1.0542,-1.92585 1.81785,-2.68953 0.7638,-0.76367 1.6602,-1.36132 2.6895,-1.79297 1.0293,-0.44824 2.1333,-0.67236 3.312,-0.67236 h 13.77105 v 6.77351 h -13.77105 c -0.46485,0 -0.86325,0.1659 -1.19535,0.498 -0.33195,0.33195 -0.498,0.7305 -0.498,1.19535 0,0.48135 0.16605,0.8964 0.498,1.245 0.3321,0.3321 0.7305,0.49815 1.19535,0.49815 h 7.07235 c 1.16205,0 2.2578,0.1992 3.2871,0.5976 1.0293,0.3819 1.9257,0.92145 2.68935,1.61865 0.76365,0.69735 1.36965,1.5357 1.81785,2.5152 0.44835,0.9795 0.67245,2.0502 0.67245,3.2124 0,1.1787 -0.2241,2.2827 -0.67245,3.312 -0.4482,1.01265 -1.0542,1.9092 -1.81785,2.68935 -0.76365,0.7638 -1.66005,1.36965 -2.68935,1.818 -1.0293,0.43155 -2.12505,0.6474 -3.2871,0.6474 z m 18.90075,0 h -6.7983 v -26.6704 h 1.64355 l 2.2413,3.16255 c 1.0956,-0.99606 2.34075,-1.75972 3.7353,-2.29098 1.39455,-0.54784 2.8389,-0.82177 4.33305,-0.82177 h 6.00135 v 6.7735 h -6.00135 c -0.71385,0 -1.3863,0.13275 -2.0172,0.3984 -0.63075,0.26565 -1.1787,0.6309 -1.64355,1.0956 -0.46485,0.46485 -0.82995,1.0128 -1.0956,1.6437 -0.26565,0.63075 -0.39855,1.3032 -0.39855,2.01705 z m 33.7179,-3.1128 c -0.54795,0.498 -1.1373,0.97125 -1.7682,1.41945 -0.61425,0.4317 -1.26165,0.81345 -1.94235,1.14555 -0.6807,0.31545 -1.38615,0.56445 -2.11665,0.747 -0.71385,0.1992 -1.44435,0.2988 -2.19135,0.2988 -1.64355,0 -3.1875,-0.29055 -4.63185,-0.8715 -1.44435,-0.5811 -2.7144,-1.4028 -3.81015,-2.4654 -1.0791,-1.0791 -1.9341,-2.3823 -2.56485,-3.9096 -0.61425,-1.54395 -0.92145,-3.2706 -0.92145,-5.17965 v -14.74225 h 6.7734 v 14.74225 c 0,0.8964 0.1329,1.7016 0.39855,2.41545 0.28215,0.6972 0.65565,1.2867 1.1205,1.76805 0.46485,0.4815 1.0044,0.84675 1.61865,1.09575 0.6309,0.249 1.3032,0.3735 2.0172,0.3735 0.6972,0 1.353,-0.15765 1.96725,-0.4731 0.6309,-0.3321 1.1787,-0.76365 1.64355,-1.29495 0.46485,-0.5313 0.8301,-1.1289 1.0956,-1.79295 0.26565,-0.6807 0.39855,-1.3779 0.39855,-2.09175 v -14.74226 h 6.7983 v 26.67041 h -1.64355 z m 15.9375,13.2729 h -6.84825 v -36.8305 h 1.64355 l 2.7144,3.21235 c 0.61425,-0.58101 1.28655,-1.12887 2.01705,-1.64352 0.7305,-0.51463 1.4859,-0.95458 2.2662,-1.31982 0.7968,-0.38184 1.61865,-0.68065 2.46525,-0.89647 0.84675,-0.21582 1.70175,-0.32373 2.565,-0.32373 1.8759,0 3.6357,0.34032 5.27925,1.02099 1.6602,0.66406 3.10455,1.61035 4.33305,2.83885 1.24515,1.2285 2.22465,2.7144 2.9385,4.45755 0.71385,1.7265 1.0707,3.64395 1.0707,5.75235 0,2.1915 -0.35685,4.167 -1.0707,5.9268 -0.71385,1.74315 -1.69335,3.22905 -2.9385,4.45755 -1.2285,1.21185 -2.67285,2.14155 -4.33305,2.7891 -1.64355,0.6474 -3.40335,0.9711 -5.27925,0.9711 -0.59775,0 -1.19535,-0.0663 -1.79295,-0.1992 -0.5811,-0.13275 -1.1622,-0.30705 -1.74315,-0.5229 -0.56445,-0.2325 -1.1289,-0.48975 -1.69335,-0.77205 -0.54795,-0.28215 -1.0791,-0.5727 -1.59375,-0.8715 z m 13.6215,-23.73195 c 0,-1.1289 -0.18255,-2.14155 -0.5478,-3.03795 -0.3486,-0.89655 -0.8301,-1.65195 -1.44435,-2.2662 -0.61425,-0.6309 -1.3365,-1.11225 -2.16645,-1.44435 -0.8301,-0.33195 -1.71,-0.498 -2.6397,-0.498 -0.9297,0 -1.8096,0.16605 -2.6397,0.498 -0.81345,0.3321 -1.5273,0.81345 -2.14155,1.44435 -0.61425,0.61425 -1.104,1.36965 -1.46925,2.2662 -0.3486,0.8964 -0.5229,1.90905 -0.5229,3.03795 0,1.0791 0.1743,2.067 0.5229,2.9634 0.36525,0.89655 0.855,1.6602 1.46925,2.2911 0.61425,0.6309 1.3281,1.1205 2.14155,1.46925 0.8301,0.3486 1.71,0.5229 2.6397,0.5229 0.9297,0 1.8096,-0.1743 2.6397,-0.5229 0.82995,-0.34875 1.5522,-0.83835 2.16645,-1.46925 0.61425,-0.6309 1.09575,-1.39455 1.44435,-2.2911 0.36525,-0.8964 0.5478,-1.8843 0.5478,-2.9634 z m 25.25055,13.57185 h -15.5385 v -6.7734 h 15.5385 c 0.465,0 0.86399,-0.16605 1.1955,-0.49815 0.33299,-0.33195 0.49799,-0.73035 0.49799,-1.1952 0,-0.4815 -0.165,-0.79695 -0.49799,-0.94635 -0.33151,-0.1494 -0.7305,-0.2241 -1.1955,-0.2241 h -7.0725 c -1.1775,0 -2.2815,-0.2241 -3.312,-0.6723 -1.02901,-0.44835 -1.9245,-1.0542 -2.68951,-1.818 -0.7635,-0.78015 -1.36949,-1.68495 -1.8165,-2.71425 -0.43197,-1.0293 -0.648,-2.1333 -0.648,-3.312 0,-1.1787 0.21601,-2.2827 0.648,-3.312 0.44701,-1.0293 1.053,-1.92585 1.8165,-2.68953 0.76501,-0.76367 1.6605,-1.36132 2.68951,-1.79297 1.0305,-0.44824 2.1345,-0.67236 3.312,-0.67236 h 13.77149 v 6.77351 h -13.77149 c -0.4635,0 -0.86251,0.1659 -1.19401,0.498 -0.33299,0.33195 -0.49799,0.7305 -0.49799,1.19535 0,0.48135 0.165,0.8964 0.49799,1.245 0.3315,0.3321 0.7305,0.49815 1.19401,0.49815 h 7.0725 c 1.1625,0 2.259,0.1992 3.288,0.5976 1.029,0.3819 1.926,0.92145 2.6895,1.61865 0.7635,0.69735 1.3695,1.5357 1.818,2.5152 0.447,0.9795 0.672,2.0502 0.672,3.2124 0,1.1787 -0.225,2.2827 -0.672,3.312 -0.4485,1.01265 -1.0545,1.9092 -1.818,2.68935 -0.7635,0.7638 -1.6605,1.36965 -2.6895,1.818 -1.029,0.43155 -2.1255,0.6474 -3.288,0.6474 z m 20.121,-33.91699 c 0,0.63085 -0.1245,1.22022 -0.3735,1.76806 -0.2325,0.54786 -0.555,1.0293 -0.9705,1.44434 -0.4155,0.39844 -0.9045,0.72217 -1.47,0.97119 -0.5475,0.23242 -1.137,0.34864 -1.767,0.34864 -0.63151,0 -1.2285,-0.11625 -1.794,-0.34864 -0.5475,-0.24902 -1.02901,-0.57275 -1.4445,-0.97119 -0.3975,-0.41504 -0.7215,-0.89648 -0.9705,-1.44434 -0.2325,-0.54784 -0.348,-1.13721 -0.348,-1.76806 0,-0.61425 0.1155,-1.19531 0.348,-1.74317 0.249,-0.56445 0.573,-1.04589 0.9705,-1.44433 0.4155,-0.41504 0.897,-0.73877 1.4445,-0.97119 0.5655,-0.24902 1.1625,-0.37353 1.794,-0.37353 0.63,0 1.2195,0.1245 1.767,0.37353 0.56549,0.23242 1.0545,0.55615 1.47,0.97119 0.4155,0.39844 0.738,0.87988 0.9705,1.44433 0.249,0.54786 0.3735,1.12892 0.3735,1.74317 z m -1.17,33.91699 h -6.8475 v -26.6704 h 6.8475 z"
     id="path2"
     inkscape:connector-curvature="0"
     style="fill:#999999;stroke-width:1.5" />
  <path
     d="m 66.553731,189.54781 c -1.643999,0 -3.1875,-0.3072 -4.631985,-0.92145 -1.444499,-0.63075 -2.714999,-1.48575 -3.809999,-2.56486 -1.078486,-1.09574 -1.9335,-2.36579 -2.565001,-3.81014 -0.615,-1.4442 -0.921014,-2.98815 -0.921014,-4.6317 v -7.91895 h -3.311971 v -6.77351 h 3.311971 V 152.269 h 6.7725 v 10.6582 h 10.3095 v 6.77351 h -10.3095 v 7.91895 c 0,0.71385 0.1335,1.38615 0.398999,2.01705 0.265501,0.61425 0.6315,1.1538 1.095,1.61865 0.465,0.46485 1.014,0.83835 1.644001,1.12065 0.6315,0.2655 1.3035,0.3984 2.017499,0.3984 h 5.154001 v 6.7734 z m 19.597501,-6.5244 c 0.2655,0.0829 0.531015,0.14114 0.798015,0.17429 0.265485,0.0166 0.531,0.0249 0.7965,0.0249 0.663015,0 1.3035,-0.0914 1.917,-0.2739 0.614985,-0.18271 1.186485,-0.43996 1.718985,-0.77206 0.5475,-0.3486 1.029,-0.76365 1.443,-1.245 0.432,-0.49815 0.7815,-1.04595 1.047,-1.64355 l 4.98,5.00535 c -0.63,0.8964 -1.3605,1.7016 -2.1915,2.41545 -0.813,0.71385 -1.701,1.31985 -2.664,1.81785 -0.9465,0.49815 -1.9515,0.87165 -3.0135,1.12065 -1.0455,0.26565 -2.1255,0.3984 -3.237,0.3984 -1.8765,0 -3.645,-0.3486 -5.304,-1.0458 -1.644,-0.69735 -3.0885,-1.66845 -4.3335,-2.9136 -1.2285,-1.24515 -2.199,-2.72265 -2.913,-4.43265 -0.714,-1.7265 -1.071,-3.6192 -1.071,-5.6778 0,-2.1084 0.357,-4.0341 1.071,-5.77724 0.714,-1.74316 1.6845,-3.22906 2.913,-4.45756 1.245,-1.22849 2.6895,-2.18309 4.3335,-2.86375 1.659,-0.68067 3.4275,-1.021 5.304,-1.021 1.1115,0 2.199,0.13275 3.2625,0.39844 1.062,0.26562 2.067,0.64746 3.012015,1.14551 0.962985,0.49804 1.86,1.1123 2.6895,1.84278 0.831,0.71387 1.5615,1.51907 2.1915,2.41548 z m 3.4875,-14.02006 c -0.3165,-0.11624 -0.6315,-0.19095 -0.9465,-0.2241 -0.3,-0.0331 -0.615,-0.0498 -0.9465,-0.0498 -0.93,0 -1.8105,0.1743 -2.64,0.52291 -0.813,0.33209 -1.527,0.81344 -2.142,1.44434 -0.597,0.6309 -1.071,1.39455 -1.419,2.2911 -0.348,0.87975 -0.523485,1.8759 -0.523485,2.98815 0,0.24915 0.009,0.5313 0.0255,0.84675 0.033,0.31545 0.075,0.63915 0.1245,0.97125 0.066,0.3153 0.141,0.6225 0.2235,0.92131 0.084,0.2988 0.191985,0.56444 0.324,0.79694 z m 19.548008,20.54446 h -6.849 V 152.269 h 6.849 v 23.50776 l 10.1355,-12.84956 h 7.818 l -8.8395,11.10641 8.8395,15.5142 h -7.818 l -5.4045,-9.687 -4.731,6.2754 z m 27.4425,0 h -6.7995 V 162.8774 h 1.644 l 2.241,2.58984 c 1.0965,-0.99609 2.33251,-1.75977 3.711,-2.29101 1.395,-0.54786 2.847,-0.82179 4.3575,-0.82179 1.6275,0 3.1635,0.31544 4.6065,0.94629 1.4445,0.61427 2.706,1.46925 3.786,2.56493 1.0785,1.0791 1.926,2.34915 2.5395,3.81015 0.6315,1.4442 0.9465,2.98815 0.9465,4.6317 v 15.2403 h -6.798 v -15.2403 c 0,-0.6972 -0.1335,-1.353 -0.399,-1.96725 -0.26549,-0.6309 -0.62999,-1.1787 -1.09499,-1.64355 -0.465,-0.46485 -1.005,-0.8301 -1.6185,-1.09575 -0.615,-0.2655 -1.27051,-0.3984 -1.96801,-0.3984 -0.714,0 -1.386,0.1329 -2.0175,0.3984 -0.62999,0.26565 -1.1775,0.6309 -1.6425,1.09575 -0.465,0.46485 -0.831,1.01265 -1.0965,1.64355 -0.26549,0.61425 -0.39749,1.27005 -0.39749,1.96725 z m 47.6625,-13.57185 c 0,1.9923 -0.357,3.8517 -1.071,5.5782 -0.714,1.70999 -1.6845,3.19574 -2.913,4.45754 -1.2285,1.24515 -2.673,2.2329 -4.3335,2.9634 -1.644,0.71385 -3.411,1.0707 -5.304,1.0707 -1.8765,0 -3.6435,-0.35685 -5.304,-1.0707 -1.644,-0.7305 -3.0885,-1.71825 -4.3335,-2.9634 -1.2285,-1.2618 -2.199,-2.74755 -2.913,-4.45754 -0.714,-1.72651 -1.071,-3.58591 -1.071,-5.5782 0,-2.0253 0.357,-3.90135 1.071,-5.62785 0.714,-1.72651 1.6845,-3.21241 2.913,-4.45756 1.245,-1.26169 2.6895,-2.24948 4.3335,-2.96335 1.6605,-0.71386 3.4275,-1.07081 5.304,-1.07081 1.893,0 3.66,0.34034 5.304,1.02101 1.6605,0.66405 3.105,1.61865 4.3335,2.86375 1.2285,1.2285 2.199,2.7144 2.913,4.45755 0.714,1.7265 1.071,3.65235 1.071,5.77726 z m -6.8475,0 c 0,-1.09561 -0.183,-2.08336 -0.549,-2.96326 -0.348,-0.89655 -0.8295,-1.6602 -1.4445,-2.2911 -0.6135,-0.6474 -1.335,-1.13715 -2.166,-1.46924 -0.813,-0.34861 -1.68449,-0.52291 -2.6145,-0.52291 -0.93,0 -1.80899,0.1743 -2.63999,0.52291 -0.813,0.33209 -1.527,0.82184 -2.142,1.46924 -0.597,0.6309 -1.06948,1.39455 -1.419,2.2911 -0.348,0.8799 -0.52201,1.86765 -0.52201,2.96326 0,1.0293 0.17401,1.98389 0.52201,2.8638 0.34952,0.8799 0.822,1.64355 1.419,2.29109 0.615,0.64741 1.329,1.16206 2.142,1.54396 0.831,0.36525 1.70999,0.5478 2.63999,0.5478 0.93001,0 1.8015,-0.1743 2.6145,-0.52291 0.831,-0.34875 1.5525,-0.83835 2.166,-1.46925 0.615,-0.6309 1.0965,-1.39454 1.4445,-2.2911 0.366,-0.8964 0.549,-1.8843 0.549,-2.96339 z m 17.4555,13.57185 h -6.8475 V 152.269 h 6.8475 z m 30.9795,-13.57185 c 0,1.9923 -0.357,3.8517 -1.071,5.5782 -0.714,1.70999 -1.686,3.19574 -2.9145,4.45754 -1.2285,1.24515 -2.673,2.2329 -4.332,2.9634 -1.644,0.71385 -3.4125,1.0707 -5.304,1.0707 -1.8765,0 -3.645,-0.35685 -5.3055,-1.0707 -1.6425,-0.7305 -3.087,-1.71825 -4.332,-2.9634 -1.2285,-1.2618 -2.2005,-2.74755 -2.9145,-4.45754 -0.714,-1.72651 -1.0695,-3.58591 -1.0695,-5.5782 0,-2.0253 0.3555,-3.90135 1.0695,-5.62785 0.714,-1.72651 1.686,-3.21241 2.9145,-4.45756 1.245,-1.26169 2.6895,-2.24948 4.332,-2.96335 1.6605,-0.71386 3.429,-1.07081 5.3055,-1.07081 1.8915,0 3.66,0.34034 5.304,1.02101 1.659,0.66405 3.1035,1.61865 4.332,2.86375 1.2285,1.2285 2.2005,2.7144 2.9145,4.45755 0.714,1.7265 1.071,3.65235 1.071,5.77726 z m -6.849,0 c 0,-1.09561 -0.183,-2.08336 -0.5475,-2.96326 -0.348,-0.89655 -0.8295,-1.6602 -1.4445,-2.2911 -0.6135,-0.6474 -1.3365,-1.13715 -2.166,-1.46924 -0.8145,-0.34861 -1.686,-0.52291 -2.6145,-0.52291 -0.93,0 -1.8105,0.1743 -2.63999,0.52291 -0.81301,0.33209 -1.527,0.82184 -2.142,1.46924 -0.597,0.6309 -1.071,1.39455 -1.419,2.2911 -0.3495,0.8799 -0.52348,1.86765 -0.52348,2.96326 0,1.0293 0.174,1.98389 0.52348,2.8638 0.348,0.8799 0.822,1.64355 1.419,2.29109 0.615,0.64741 1.32899,1.16206 2.142,1.54396 0.82949,0.36525 1.70999,0.5478 2.63999,0.5478 0.9285,0 1.8,-0.1743 2.6145,-0.52291 0.8295,-0.34875 1.5525,-0.83835 2.166,-1.46925 0.615,-0.6309 1.0965,-1.39454 1.4445,-2.2911 0.3645,-0.8964 0.5475,-1.8843 0.5475,-2.96339 z m 29.5845,0 c 0,-0.92955 -0.183,-1.8261 -0.5475,-2.68936 -0.3495,-0.87989 -0.831,-1.65195 -1.4445,-2.316 -0.615,-0.68055 -1.3365,-1.2201 -2.1675,-1.61865 -0.813,-0.41505 -1.6845,-0.6225 -2.6145,-0.6225 -0.93,0 -1.809,0.15765 -2.64,0.47311 -0.813,0.31545 -1.527,0.78029 -2.1405,1.39454 -0.5985,0.61426 -1.071,1.3779 -1.4205,2.29111 -0.348,0.89639 -0.522,1.9257 -0.522,3.08775 0,1.1124 0.174,2.1168 0.522,3.0132 0.3495,0.8799 0.822,1.6353 1.4205,2.26619 0.6135,0.6309 1.3275,1.12066 2.1405,1.46925 0.831,0.33196 1.71,0.49801 2.64,0.49801 0.93,0 1.8015,-0.1992 2.6145,-0.59761 0.831,-0.41505 1.5525,-0.9546 2.1675,-1.61865 0.6135,-0.6807 1.095,-1.45275 1.4445,-2.316 0.3645,-0.8799 0.5475,-1.7847 0.5475,-2.71439 z m 6.8475,10.21005 c 0,1.8759 -0.357,3.6357 -1.071,5.27925 -0.7125,1.64355 -1.692,3.07965 -2.9385,4.30815 -1.2285,1.22849 -2.6715,2.19975 -4.332,2.91359 -1.644,0.71385 -3.4035,1.0707 -5.28,1.0707 l -3.411,-0.0498 v -6.7983 l 3.3615,0.0498 c 1.062,0 1.968,-0.14114 2.715,-0.42329 0.747,-0.26565 1.377,-0.63915 1.8915,-1.12065 0.51451,-0.46485 0.92251,-1.0044 1.22101,-1.61866 0.31499,-0.61425 0.56399,-1.26164 0.747,-1.94234 -0.26551,0.43169 -0.64801,0.78855 -1.14601,1.07084 -0.49799,0.2655 -1.05449,0.48135 -1.66799,0.6474 -0.5985,0.18256 -1.22848,0.3072 -1.893,0.3735 -0.6465,0.0665 -1.25251,0.0996 -1.81798,0.0996 -1.875,0 -3.6435,-0.3237 -5.304,-0.9711 -1.64402,-0.64755 -3.087,-1.56885 -4.33352,-2.7642 -1.22848,-1.21185 -2.199,-2.6895 -2.913,-4.43265 -0.714,-1.74315 -1.071,-3.7104 -1.071,-5.9019 0,-2.00865 0.357,-3.87645 1.071,-5.60295 0.714,-1.7265 1.6845,-3.22065 2.913,-4.48245 1.2465,-1.26169 2.6895,-2.24949 4.33352,-2.96335 1.6605,-0.71387 3.429,-1.07081 5.304,-1.07081 0.864,0 1.719,0.10785 2.565,0.32373 0.8475,0.21582 1.6695,0.51465 2.46598,0.89649 0.7965,0.38184 1.55252,0.83007 2.26652,1.34472 0.729,0.51465 1.41,1.07081 2.0415,1.66842 l 2.63998,-3.16255 h 1.64252 z m 13.224,-30.5552 c 0,0.63086 -0.1245,1.22022 -0.3735,1.76807 -0.2325,0.54786 -0.5565,1.0293 -0.972,1.44433 -0.414,0.39844 -0.9045,0.72218 -1.4685,0.97119 -0.5475,0.23243 -1.137,0.34864 -1.7685,0.34864 -0.6315,0 -1.2285,-0.11624 -1.7925,-0.34864 -0.5475,-0.24901 -1.029,-0.57275 -1.4445,-0.97119 -0.399,-0.41504 -0.723,-0.89647 -0.972,-1.44433 -0.2325,-0.54785 -0.348,-1.13721 -0.348,-1.76807 0,-0.61425 0.1155,-1.1953 0.348,-1.74316 0.249,-0.56445 0.573,-1.04589 0.972,-1.44434 0.4155,-0.41503 0.897,-0.73876 1.4445,-0.97119 0.564,-0.24901 1.161,-0.37353 1.7925,-0.37353 0.6315,0 1.221,0.1245 1.7685,0.37353 0.564,0.23243 1.0545,0.55616 1.4685,0.97119 0.4155,0.39845 0.7395,0.87989 0.972,1.44434 0.249,0.54786 0.3735,1.12891 0.3735,1.74316 z m -1.1715,33.917 h -6.8475 V 162.8774 h 6.8475 z"
     id="path4"
     inkscape:connector-curvature="0"
     style="fill:#6494b3;stroke-width:1.5" />
</svg>
